<svg id="Calque_1" data-name="Calque 1" xmlns="http://www.w3.org/2000/svg" width="4.08cm" height="4.08cm" viewBox="0 0 115.62 115.62">
  <defs>
    <style>
      .cls-1 {
        fill: #5b1dec;
      }

      .cls-2 {
        fill: #fff;
      }

      .cls-3 {
        fill: #6ef9b7;
      }

      .cls-4 {
        fill: #1d1d1b;
        opacity: 0.08;
      }
    </style>
  </defs>
  <g>
    <circle class="cls-1" cx="57.81" cy="57.81" r="57.81"/>
    <path class="cls-2" d="M97.3,62.84c0-.13.09-.27.13-.4a23.85,23.85,0,0,0,.89-4.37l0-.25c.07-.72.11-1.45.11-2.18v-.15A23.9,23.9,0,0,0,89.71,37a24.21,24.21,0,0,0-31.93.74A24.21,24.21,0,0,0,25.85,37a23.88,23.88,0,0,0-8.76,18.51v.15A24.42,24.42,0,0,0,28.88,76.47a28.43,28.43,0,0,0-.26,3.8A28.89,28.89,0,0,0,86.4,80a29.31,29.31,0,0,0-.19-3.27A25.19,25.19,0,0,0,96.57,64.84s0-.07,0-.11Q97,63.8,97.3,62.84ZM29.84,85.92Zm.63,2.43.24.74C30.63,88.85,30.54,88.6,30.47,88.35Zm.77,2.19c.19.47.39.93.6,1.39C31.63,91.47,31.43,91,31.24,90.54Zm1,2.28c.28.55.57,1.08.87,1.61C32.84,93.9,32.55,93.37,32.27,92.82Zm1.33,2.36c.31.49.63,1,1,1.44C34.23,96.15,33.91,95.67,33.6,95.18Zm1.66,2.36c.26.33.52.66.79,1C35.78,98.2,35.52,97.87,35.26,97.54Zm2,2.32.3.32Z"/>
    <path class="cls-1" d="M78.48,78C74.74,88.54,67,98.34,56,101.94c-10.51,3.46-21.71.28-29.63-7.23A42.55,42.55,0,0,1,15.81,78c-.7-2-3.92-1.15-3.2.88,4.15,11.74,12.63,22.32,24.77,26.31C49,109,61.5,105.36,70.24,97.07A46.05,46.05,0,0,0,81.69,78.84c.72-2-2.49-2.89-3.21-.88Z"/>
    <g>
      <path class="cls-3" d="M44.7,63.21a2.09,2.09,0,0,1-4.17,0V52.41a2.09,2.09,0,0,1,4.17,0Zm0,0"/>
      <path class="cls-3" d="M52.52,63.21a2.09,2.09,0,0,1-4.17,0V52.41a2.09,2.09,0,0,1,4.17,0Zm0,0"/>
    </g>
    <path class="cls-3" d="M76.65,57,65.6,50.65a.9.9,0,0,0-1.35.78V64.19a.9.9,0,0,0,.45.78.92.92,0,0,0,.45.12A.87.87,0,0,0,65.6,65l11.05-6.38a.9.9,0,0,0,.45-.78.91.91,0,0,0-.45-.79Zm0,0"/>
    <ellipse class="cls-1" cx="54.58" cy="73.81" rx="1.29" ry="2.33" transform="translate(-36.87 65.86) rotate(-48.55)"/>
    <ellipse class="cls-1" cx="60.05" cy="73.81" rx="2.33" ry="1.29" transform="translate(-34.6 64.08) rotate(-45)"/>
    <path class="cls-4" d="M57.81,115.62A57.81,57.81,0,0,1,57.81,0"/>
  </g>
</svg>
