<svg data-v-fde0c5aa="" xmlns="http://www.w3.org/2000/svg" viewBox="0 0 300 300" class="iconAbove"><!----><defs data-v-fde0c5aa=""><!----></defs><rect data-v-fde0c5aa="" fill="#FEF2E5" x="0" y="0" width="300px" height="300px" class="logo-background-square"></rect><defs data-v-fde0c5aa=""><!----></defs><g data-v-fde0c5aa="" id="cc7f9bcd-449a-4737-9cb7-47311a1051cc" fill="#361C00" transform="matrix(5.116514750307867,0,0,5.116514750307867,44.42071817619206,172.25177276414342)"><path d="M1.82 14.35L1.82 9.53L6.54 9.53L6.54 9.25L1.82 9.25L1.82 4.86L6.73 4.86L6.73 4.58L1.51 4.58L1.51 14.35ZM9.10 4.93C9.34 4.93 9.42 4.79 9.42 4.63L9.42 4.54C9.42 4.38 9.34 4.24 9.10 4.24C8.86 4.24 8.78 4.38 8.78 4.54L8.78 4.63C8.78 4.79 8.86 4.93 9.10 4.93ZM8.96 14.35L9.25 14.35L9.25 7.27L8.96 7.27ZM12.49 14.35L12.49 9.28C12.49 7.99 13.55 7.36 14.71 7.36C16.10 7.36 16.88 8.13 16.88 9.86L16.88 14.35L17.18 14.35L17.18 9.80C17.18 8.04 16.32 7.10 14.74 7.10C13.47 7.10 12.78 7.70 12.53 8.33L12.49 8.33L12.49 7.27L12.19 7.27L12.19 14.35ZM24.65 14.35L24.95 14.35L24.95 3.99L24.65 3.99L24.65 8.36L24.61 8.36C24.32 7.74 23.56 7.10 22.32 7.10C20.45 7.10 19.35 8.34 19.35 10.81C19.35 13.27 20.45 14.52 22.32 14.52C23.56 14.52 24.32 13.87 24.61 13.26L24.65 13.26ZM22.32 14.25C20.62 14.25 19.67 13.06 19.67 11.14L19.67 10.47C19.67 8.55 20.62 7.36 22.32 7.36C23.55 7.36 24.65 8.13 24.65 9.27L24.65 12.35C24.65 13.48 23.55 14.25 22.32 14.25ZM28.03 4.93C28.27 4.93 28.35 4.79 28.35 4.63L28.35 4.54C28.35 4.38 28.27 4.24 28.03 4.24C27.79 4.24 27.71 4.38 27.71 4.54L27.71 4.63C27.71 4.79 27.79 4.93 28.03 4.93ZM27.89 14.35L28.18 14.35L28.18 7.27L27.89 7.27ZM31.37 14.35L31.67 14.35L31.67 7.53L33.29 7.53L33.29 7.27L31.67 7.27L31.67 4.26L33.29 4.26L33.29 3.99L31.78 3.99C31.50 3.99 31.37 4.12 31.37 4.40L31.37 7.27L30.07 7.27L30.07 7.53L31.37 7.53ZM36.97 14.01L36.93 14.01L34.44 7.27L34.13 7.27L36.81 14.45L35.88 16.88L34.58 16.88L34.58 17.15L35.76 17.15C35.97 17.15 36.12 17.07 36.19 16.88L39.76 7.27L39.47 7.27Z"></path></g><defs data-v-fde0c5aa=""><linearGradient data-v-fde0c5aa="" gradientTransform="rotate(25)" id="6e826bf1-4e60-4321-ac1c-d192820720c2" x1="0%" y1="0%" x2="100%" y2="0%"><stop data-v-fde0c5aa="" offset="0%" stop-color="#EB4C00" stop-opacity="1"></stop><stop data-v-fde0c5aa="" offset="100%" stop-color="#F2A900" stop-opacity="1"></stop></linearGradient></defs><g data-v-fde0c5aa="" id="84cd1dd2-b76a-4aca-9439-fe30c2c0e660" stroke="url(#6e826bf1-4e60-4321-ac1c-d192820720c2)" fill="none" transform="matrix(1.4942209893666205,0,0,1.4942209893666205,81.9232896724565,39.25288950531667)"><path d="M57.428 74.097c1.269 0 2.298.759 2.298 1.726 0 .935-1.03 1.73-2.298 1.73-1.271 0-2.272-.796-2.272-1.73.001-.965 1.001-1.726 2.272-1.726z"></path><g stroke-linecap="round" stroke-linejoin="round"><path d="M60.558 72.403c3.193 1.57 6.372 3.155 9.54 4.752 5.245 2.624 10.468 5.27 15.727 7.832"></path><path d="M90.62 87.407l-4.796-2.42-15.726-7.832-9.54-4.752M58.275 49.316c21.349 10.503-21.807 11.784-1.27 21.866"></path><path d="M56.741 71.169c-3.243 0-5.853 2.237-5.853 5.007 0 2.767 2.609 5.028 5.853 5.028 3.25 0 5.884-2.262 5.884-5.028 0-1.524-.819-2.865-2.067-3.772-.011-.013-.011-.013-.023-.013a.93.93 0 0 0-.168-.132"></path><path d="M55.157 75.822c0 .935 1 1.73 2.272 1.73 1.271 0 2.297-.796 2.297-1.73 0-.967-1.03-1.726-2.297-1.726-1.272.001-2.272.762-2.272 1.726z"></path></g><path stroke="#000" stroke-linecap="round" stroke-linejoin="round" d="M29.5 85.709l60.558 1.917M23.112 6.577C30.03 2.199 38.289.003 46.47.766M14.079 14.351a41.124 41.124 0 0 1 3.455-3.531M13.092 71.908c-12.158-15.18-13.11-38.456-2.26-54.59M12.942 63.827l1.276 23.927M14.218 87.754l7.976-11.485M19.539 80.188l10.312 10.437M29.851 90.625l2.4-4.7M6.88 7.04l22.052-.494M6.88 7.04l10.209 3.828M15.683 12.577L.5 16.93M.5 16.93l9.571 1.595"></path><path stroke="#000" stroke-linecap="round" stroke-linejoin="round" d="M46.39.748C61.956.746 76.156 11.421 80.894 26.182c4.81 14.98-1.134 31.684-13.896 40.729"></path><path stroke="#000" stroke-linecap="round" stroke-linejoin="round" d="M42.532.5c12.774 0 23.129 9.07 23.129 20.258 0 26.98-35.328 19.502-30.549 19.502"></path><path stroke="#000" stroke-linecap="round" stroke-linejoin="round" d="M44.598 62.352c.292.019.585.04.885.04 6.695 0 12.123-4.786 12.123-10.688 0-5.902-5.428-10.688-12.123-10.688S33.36 45.802 33.36 51.704"></path></g><!----></svg>